<svg width="22" height="17" viewBox="0 0 22 17" fill="none" xmlns="http://www.w3.org/2000/svg">
<path d="M0 17V11.3826C0 9.26377 0.358974 7.29275 1.07692 5.46956C1.84615 3.5971 3.15385 1.77391 5 0L8.15385 2.43913C6.71795 3.86811 5.74359 5.19855 5.23077 6.43044C4.71795 7.61304 4.46154 8.86957 4.46154 10.2L2.53846 8.79565H8.53846V17H0ZM13.4615 17V11.3826C13.4615 9.26377 13.8205 7.29275 14.5385 5.46956C15.3077 3.5971 16.6154 1.77391 18.4615 0L21.6154 2.43913C20.1795 3.86811 19.2051 5.19855 18.6923 6.43044C18.1795 7.61304 17.9231 8.86957 17.9231 10.2L16 8.79565H22V17H13.4615Z" fill="#0E0E29"/>
</svg>
